#N canvas 96 387 722 458 12;
#X declare -stdlib py;
#X obj 39 278 print;
#X obj 39 241 py gs_script test_gsio;
#X msg 97 143 bang;
#X msg 40 104 reload;
#X msg 123 176 57 12000 0.25;
#X obj 12 12 declare -stdlib py;
#X connect 1 0 0 0;
#X connect 2 0 1 0;
#X connect 3 0 1 0;
#X connect 4 0 1 0;
