#N canvas 450 70 722 458 12;
#X obj 39 278 print;
#X obj 316 234 print;
#X msg 469 149 freakhole;
#X msg 148 149 list H e l l o;
#X msg 166 175 Hello friend;
#X obj 32 420 print;
#X msg 92 327 0 1 2 3 4;
#X msg 187 327 5 67 3;
#X obj 300 406 print;
#X obj 266 318 bng 15 250 50 0 empty empty empty 20 8 0 8 -262144 -1
-1;
#X obj 466 405 print;
#X obj 434 341 bng 15 250 50 0 empty empty empty 20 8 0 8 -262144 -1
-1;
#X msg 188 204 1 3;
#X msg 316 175 help;
#X msg 300 280 set ret1;
#X msg 319 304 set ret2;
#X text 374 279 functions can be set;
#X msg 391 120 somewhere_past_mars;
#X text 152 101 reload with new arguments;
#X msg 40 104 reload 1 2 3;
#X text 21 69 This demonstrates simple scripting. See the script.py
file.;
#X obj 33 384 py script addall;
#X obj 300 380 py script;
#X obj 316 204 py script strlen;
#X msg 21 159 dir;
#X obj 146 279 print A;
#X msg 58 160 dir+;
#X obj 16 13 cnv 15 630 40 empty empty py/pyext 10 22 0 24 -260818
-1 0;
#X text 235 16 Python script objects \, (C)2003-2005 Thomas Grill;
#X text 235 32 http://grrrr.org/ext;
#X msg 479 178 a b c;
#X text 526 181 too many args;
#X text 455 332 just trigger without arguments;
#X msg 336 331 set ret4;
#X obj 466 379 py script ret3;
#X obj 39 241 py gs_script strcat;
#X connect 2 0 23 1;
#X connect 3 0 35 1;
#X connect 4 0 35 1;
#X connect 6 0 21 1;
#X connect 7 0 21 1;
#X connect 9 0 22 0;
#X connect 11 0 34 0;
#X connect 12 0 35 1;
#X connect 13 0 23 0;
#X connect 14 0 22 0;
#X connect 15 0 22 0;
#X connect 17 0 23 1;
#X connect 19 0 35 0;
#X connect 21 0 5 0;
#X connect 22 0 8 0;
#X connect 23 0 1 0;
#X connect 24 0 35 0;
#X connect 26 0 35 0;
#X connect 30 0 23 1;
#X connect 33 0 22 0;
#X connect 34 0 10 0;
#X connect 35 0 0 0;
#X connect 35 1 25 0;
