#N canvas 290 534 722 458 12;
#X declare -stdlib py;
#X obj 159 219 py gs_script test_gsio;
#X msg 172 189 bang;
#X msg 159 157 reload;
#X obj 12 12 declare -stdlib py;
#X obj 159 246 zexy/repack 4;
#X obj 159 272 list split 1;
#X obj 205 299 print;
#X connect 0 0 4 0;
#X connect 1 0 0 0;
#X connect 2 0 0 0;
#X connect 4 0 5 0;
#X connect 5 1 6 0;
